<?xml version="1.0" encoding="UTF-8"?>
<svg width="27px" height="27px" viewBox="0 0 27 27" version="1.1" xmlns="http://www.w3.org/2000/svg" xmlns:xlink="http://www.w3.org/1999/xlink">
    <!-- Generator: Sketch 56.3 (81716) - https://sketch.com -->
    <title>Accounting</title>
    <desc>Created with Sketch.</desc>
    <defs>
        <polygon id="path-1" points="0 0 14.8753558 0 14.8753558 15.9848402 0 15.9848402"></polygon>
    </defs>
    <g id="Accounting" stroke="none" stroke-width="1" fill="none" fill-rule="evenodd">
        <g id="Group-3" transform="translate(6.000000, 5.000000)">
            <mask id="mask-2" fill="white">
                <use xlink:href="#path-1"></use>
            </mask>
            <g id="Clip-2"></g>
            <path d="M12.5601635,4.52932331 C12.5601635,4.82960526 12.3112212,5.07293233 12.0037212,5.07293233 L2.87218269,5.07293233 C2.56468269,5.07293233 2.31574038,4.82960526 2.31574038,4.52932331 L2.31574038,2.8156015 C2.31574038,2.51531955 2.56468269,2.27227444 2.87218269,2.27227444 L12.0037212,2.27227444 C12.3112212,2.27227444 12.5601635,2.51531955 12.5601635,2.8156015 L12.5601635,4.52932331 Z M12.5601635,9.68120301 C12.5601635,9.98120301 12.3112212,10.2245301 12.0037212,10.2245301 L10.1688173,10.2245301 C9.86189423,10.2245301 9.61266346,9.98120301 9.61266346,9.68120301 L9.61266346,8.22321429 C9.61266346,7.92293233 9.86189423,7.67960526 10.1688173,7.67960526 L12.0037212,7.67960526 C12.3112212,7.67960526 12.5601635,7.92293233 12.5601635,8.22321429 L12.5601635,9.68120301 Z M12.5601635,12.8867481 C12.5601635,13.1867481 12.3112212,13.4300752 12.0037212,13.4300752 L10.1688173,13.4300752 C9.86189423,13.4300752 9.61266346,13.1867481 9.61266346,12.8867481 L9.61266346,11.4549812 C9.61266346,11.1546992 9.86189423,10.9113722 10.1688173,10.9113722 L12.0037212,10.9113722 C12.3112212,10.9113722 12.5601635,11.1546992 12.5601635,11.4549812 L12.5601635,12.8867481 Z M8.91141346,9.68120301 C8.91141346,9.98120301 8.66218269,10.2245301 8.35468269,10.2245301 L6.52064423,10.2245301 C6.21343269,10.2245301 5.96449038,9.98120301 5.96449038,9.68120301 L5.96449038,8.22321429 C5.96449038,7.92293233 6.21343269,7.67960526 6.52064423,7.67960526 L8.35468269,7.67960526 C8.66218269,7.67960526 8.91141346,7.92293233 8.91141346,8.22321429 L8.91141346,9.68120301 Z M8.91141346,12.8867481 C8.91141346,13.1867481 8.66218269,13.4300752 8.35468269,13.4300752 L6.52064423,13.4300752 C6.21343269,13.4300752 5.96449038,13.1867481 5.96449038,12.8867481 L5.96449038,11.4549812 C5.96449038,11.1546992 6.21343269,10.9113722 6.52064423,10.9113722 L8.35468269,10.9113722 C8.66218269,10.9113722 8.91141346,11.1546992 8.91141346,11.4549812 L8.91141346,12.8867481 Z M5.26179808,9.68120301 C5.26179808,9.98120301 5.01285577,10.2245301 4.70564423,10.2245301 L2.87189423,10.2245301 C2.56439423,10.2245301 2.31545192,9.98120301 2.31545192,9.68120301 L2.31545192,8.22321429 C2.31545192,7.92293233 2.56439423,7.67960526 2.87189423,7.67960526 L4.70622115,7.67960526 C5.01314423,7.67960526 5.26208654,7.92293233 5.26208654,8.22321429 L5.26179808,9.68120301 Z M5.26179808,12.8867481 C5.26179808,13.1867481 5.01285577,13.4300752 4.70564423,13.4300752 L2.87189423,13.4300752 C2.56439423,13.4300752 2.31545192,13.1867481 2.31545192,12.8867481 L2.31545192,11.4549812 C2.31545192,11.1546992 2.56439423,10.9113722 2.87189423,10.9113722 L4.70622115,10.9113722 C5.01314423,10.9113722 5.26208654,11.1546992 5.26208654,11.4549812 L5.26179808,12.8867481 Z M2.26295192,0 C1.01304808,0 -2.88461538e-05,0.990225564 -2.88461538e-05,2.21193609 L-2.88461538e-05,13.7729323 C-2.88461538e-05,14.9946429 1.01304808,15.9848684 2.26295192,15.9848684 L12.6126635,15.9848684 C13.8622788,15.9848684 14.8753558,14.9946429 14.8753558,13.7729323 L14.8753558,2.21193609 C14.8753558,0.990225564 13.8622788,0 12.6126635,0 L2.26295192,0 Z" id="Fill-1" fill="#FFFFFF" mask="url(#mask-2)"></path>
        </g>
    </g>
</svg>