<?xml version="1.0" encoding="UTF-8"?>
<svg width="27px" height="27px" viewBox="0 0 27 27" version="1.1" xmlns="http://www.w3.org/2000/svg" xmlns:xlink="http://www.w3.org/1999/xlink">
    <!-- Generator: Sketch 56.3 (81716) - https://sketch.com -->
    <title>Booking of Trip</title>
    <desc>Created with Sketch.</desc>
    <defs>
        <polygon id="path-1" points="2.49609356e-05 0 17.8909714 0 17.8909714 14.9191842 2.49609356e-05 14.9191842"></polygon>
    </defs>
    <g id="Booking-of-Trip" stroke="none" stroke-width="1" fill="none" fill-rule="evenodd">
        <g id="Group-3-Copy" transform="translate(5.000000, 6.000000)">
            <mask id="mask-2" fill="white">
                <use xlink:href="#path-1"></use>
            </mask>
            <g id="Clip-2"></g>
            <path d="M3.04408286,11.2528947 C3.30611143,10.9844737 3.61674,10.8502632 3.97571143,10.8502632 C4.33468286,10.8502632 4.64556857,10.9847368 4.90759714,11.2528947 C5.16988286,11.5213158 5.30128286,11.8394737 5.30128286,12.2068421 C5.30128286,12.5742105 5.16988286,12.8921053 4.90759714,13.1602632 C4.64556857,13.4289474 4.33468286,13.5631579 3.97571143,13.5631579 C3.61674,13.5631579 3.30611143,13.4286842 3.04408286,13.1602632 C2.78154,12.8921053 2.65039714,12.5742105 2.65039714,12.2068421 C2.65039714,11.8394737 2.78179714,11.5215789 3.04408286,11.2528947 Z M11.92734,4.06921053 L13.5632829,4.06921053 C13.6530257,4.06921053 13.7288829,4.10078947 13.7911114,4.16447368 L15.8101971,6.23052632 C15.8721686,6.29421053 15.9032829,6.37184211 15.9032829,6.46368421 L15.9032829,6.78157895 L11.92734,6.78157895 L11.92734,4.06921053 Z M12.3207686,11.2528947 C12.5830543,10.9844737 12.8936829,10.8502632 13.2526543,10.8502632 C13.6116257,10.8502632 13.9222543,10.9847368 14.18454,11.2528947 C14.4468257,11.5213158 14.5779686,11.8394737 14.5779686,12.2068421 C14.5779686,12.5742105 14.4468257,12.8921053 14.18454,13.1602632 C13.9222543,13.4289474 13.6116257,13.5631579 13.2526543,13.5631579 C12.8936829,13.5631579 12.5830543,13.4286842 12.3207686,13.1602632 C12.0584829,12.8921053 11.92734,12.5742105 11.92734,12.2068421 C11.92734,11.8394737 12.0584829,11.5213158 12.3207686,11.2528947 Z M2.42119846e-05,11.5284211 C2.42119846e-05,11.6342105 0.0136542857,11.7281579 0.0414257143,11.8092105 C0.06894,11.8905263 0.11574,11.9557895 0.181311429,12.0052632 C0.246882857,12.0547368 0.303711429,12.0955263 0.352054286,12.1271053 C0.400397143,12.1589474 0.481397143,12.18 0.595311429,12.1907895 C0.709225714,12.2013158 0.786882857,12.2084211 0.82854,12.2121053 C0.86994,12.2152632 0.957625714,12.2152632 1.09236857,12.2121053 C1.22685429,12.2084211 1.30476857,12.2068421 1.32534,12.2068421 C1.32534,12.9552632 1.58402571,13.5947368 2.10191143,14.1244737 C2.61954,14.6542105 3.24388286,14.9192105 3.97571143,14.9192105 C4.70754,14.9192105 5.33214,14.6542105 5.84976857,14.1244737 C6.36739714,13.5944737 6.62608286,12.9552632 6.62608286,12.2068421 L10.6020257,12.2068421 C10.6020257,12.9552632 10.8609686,13.5947368 11.3785971,14.1244737 C11.8962257,14.6542105 12.5208257,14.9192105 13.2523971,14.9192105 C13.9842257,14.9192105 14.6088257,14.6542105 15.1267114,14.1244737 C15.6440829,13.5944737 15.9030257,12.9552632 15.9030257,12.2068421 L16.5656829,12.2068421 C16.5865114,12.2068421 16.6641686,12.2084211 16.7986543,12.2121053 C16.9333971,12.2152632 17.02134,12.2152632 17.06274,12.2121053 C17.10414,12.2084211 17.1817971,12.2013158 17.2957114,12.1907895 C17.4093686,12.18 17.4906257,12.1589474 17.5389686,12.1271053 C17.5873114,12.0952632 17.6443971,12.0547368 17.7097114,12.0052632 C17.77554,11.9557895 17.8220829,11.8905263 17.8495971,11.8092105 C17.8773686,11.7281579 17.8909971,11.6344737 17.8909971,11.5284211 C17.8909971,11.345 17.8254257,11.1857895 17.6942829,11.0518421 C17.56314,10.9173684 17.4078257,10.8505263 17.22834,10.8505263 L17.22834,7.45973684 C17.22834,7.40315789 17.23014,7.27973684 17.2334829,7.08894737 C17.2370829,6.89815789 17.2370829,6.76368421 17.2334829,6.68605263 C17.23014,6.60842105 17.2213971,6.48657895 17.2077686,6.32052632 C17.19414,6.15421053 17.1715114,6.02368421 17.1403971,5.92842105 C17.1092829,5.83315789 17.0611971,5.72526316 16.9956257,5.60526316 C16.9297971,5.48526316 16.85214,5.37921053 16.7626543,5.28736842 L14.7124543,3.18947368 C14.5813114,3.05526316 14.4072257,2.94236842 14.1896829,2.85026316 C13.97214,2.75868421 13.7702829,2.71263158 13.5838543,2.71263158 L11.92734,2.71263158 L11.92734,0.678157895 C11.92734,0.494473684 11.8615114,0.335526316 11.7306257,0.201315789 C11.5994829,0.0673684211 11.4441686,0 11.2646829,0 L0.662425714,0 C0.483197143,0 0.327368571,0.0673684211 0.196482857,0.201315789 C0.06534,0.335789474 -0.000231428571,0.494736842 2.42119846e-05,0.678157895 L2.42119846e-05,11.5284211 Z" id="Fill-1" fill="#FFFFFF" mask="url(#mask-2)"></path>
        </g>
    </g>
</svg>