<?xml version="1.0" encoding="UTF-8"?>
<svg width="27px" height="27px" viewBox="0 0 27 27" version="1.1" xmlns="http://www.w3.org/2000/svg" xmlns:xlink="http://www.w3.org/1999/xlink">
    <!-- Generator: Sketch 56.3 (81716) - https://sketch.com -->
    <title>Dashboard</title>
    <desc>Created with Sketch.</desc>
    <g id="Dashboard" stroke="none" stroke-width="1" fill="none" fill-rule="evenodd">
        <g id="Group-3" transform="translate(4.000000, 6.000000)" fill="#FFFFFF">
            <path d="M16.8020321,10.1909059 C16.5437518,10.4491862 16.2322482,10.5784896 15.8671946,10.5784896 C15.5021411,10.5784896 15.1906374,10.4491862 14.9323572,10.1909059 C14.6740769,9.93262565 14.5447735,9.621122 14.5447735,9.25606846 C14.5447735,8.89101492 14.6740769,8.57951127 14.9323572,8.32123099 C15.1906374,8.06262419 15.5021411,7.93364731 15.8671946,7.93364731 C16.2322482,7.93364731 16.5437518,8.06262419 16.8020321,8.32123099 C17.0603124,8.57951127 17.1892892,8.89101492 17.1892892,9.25606846 C17.1892892,9.621122 17.0603124,9.93229912 16.8020321,10.1909059 M12.949052,5.56308496 C12.6907717,5.30480468 12.5614683,4.99330103 12.5614683,4.62792097 C12.5614683,4.26319395 12.6907717,3.9516903 12.949052,3.69341002 C13.2073322,3.43512975 13.5188359,3.30582634 13.8835629,3.30582634 C14.248943,3.30582634 14.5604466,3.43512975 14.8187269,3.69341002 C15.0770072,3.9516903 15.2063106,4.26319395 15.2063106,4.62792097 C15.2063106,4.99297451 15.0770072,5.30480468 14.8187269,5.56308496 C14.5604466,5.82103871 14.248943,5.95034211 13.8835629,5.95034211 C13.5188359,5.95034211 13.2073322,5.82103871 12.949052,5.56308496 M10.3714736,9.59695924 C10.7159561,9.83075024 10.9637876,10.144213 11.1152946,10.5370211 C11.2668017,10.9295026 11.2873726,11.3324329 11.1773341,11.7454855 C11.0395411,12.27576 10.7332619,12.6786903 10.2578433,12.9539498 C9.78242473,13.2295359 9.27990469,13.2984324 8.74963014,13.1606393 C8.21935558,13.0228463 7.81642529,12.7165671 7.54116578,12.241475 C7.26557974,11.7660564 7.19668323,11.2635364 7.33447625,10.7329353 C7.44451475,10.3198828 7.66165304,9.98062464 7.98523806,9.71581388 C8.30882309,9.45035008 8.67746839,9.30080221 9.09052092,9.26619069 C9.09052092,9.26619069 9.29884307,8.76432371 10.9396249,4.84505925 C10.4576758,8.98505375 10.3714736,9.59695924 10.3714736,9.59695924 M5.56308496,5.56308496 C5.30447816,5.82103871 4.99297451,5.95034211 4.62792097,5.95034211 C4.26286743,5.95034211 3.95136378,5.82103871 3.6930835,5.56308496 C3.43480322,5.30480468 3.30582634,4.99330103 3.30582634,4.62792097 C3.30582634,4.26319395 3.43480322,3.9516903 3.6930835,3.69341002 C3.95136378,3.43512975 4.26286743,3.30582634 4.62792097,3.30582634 C4.99297451,3.30582634 5.30480468,3.43512975 5.56308496,3.69341002 C5.82103871,3.9516903 5.95034211,4.26319395 5.95034211,4.62792097 C5.95034211,4.99297451 5.82103871,5.30480468 5.56308496,5.56308496 M3.57945324,10.1909059 C3.32117296,10.4491862 3.00966931,10.5784896 2.64461577,10.5784896 C2.27956223,10.5784896 1.96805858,10.4491862 1.7097783,10.1909059 C1.45149802,9.93262565 1.32252115,9.621122 1.32252115,9.25606846 C1.32252115,8.89101492 1.45149802,8.57951127 1.7097783,8.32123099 C1.96805858,8.06262419 2.27956223,7.93364731 2.64461577,7.93364731 C3.00966931,7.93364731 3.32149948,8.06262419 3.57945324,8.32123099 C3.83773352,8.57951127 3.96671039,8.89101492 3.96671039,9.25606846 C3.96671039,9.621122 3.83773352,9.93229912 3.57945324,10.1909059 M8.32090447,1.7097783 C8.57918475,1.45149802 8.89068839,1.32219462 9.25574194,1.32219462 C9.62079548,1.32219462 9.93229912,1.45149802 10.1905794,1.7097783 C10.4488597,1.96805858 10.5781631,2.27956223 10.5781631,2.64461577 C10.5781631,3.00966931 10.4488597,3.32117296 10.1905794,3.57945324 C9.93229912,3.83773352 9.62079548,3.96671039 9.25574194,3.96671039 C8.89068839,3.96671039 8.57918475,3.83773352 8.32090447,3.57945324 C8.06262419,3.32117296 7.93364731,3.00966931 7.93364731,2.64461577 C7.93364731,2.27956223 8.06262419,1.96805858 8.32090447,1.7097783 M17.7783381,5.66104208 C17.289532,4.51755594 16.6319132,3.53308687 15.8054816,2.70665528 C14.9790501,1.87989717 13.9942545,1.22260488 12.8507683,0.73347232 C11.7076087,0.244666281 10.5095931,0.0001 9.25606846,0.0001 C8.00254382,0.0001 6.80420169,0.244666281 5.66104208,0.73347232 C4.51788247,1.22260488 3.53308687,1.87989717 2.70665528,2.70665528 C1.87989717,3.53308687 1.22260488,4.51755594 0.73347232,5.66104208 C0.244666281,6.80420169 0.0001,8.00254382 0.0001,9.25606846 C0.0001,11.0601121 0.485640801,12.7234241 1.4567224,14.2453512 C1.5873319,14.4451837 1.77345043,14.5451 2.01442495,14.5451 L16.4973854,14.5451 C16.73836,14.5451 16.9244785,14.4451837 17.055088,14.2453512 C18.0261696,12.7165671 18.5117104,11.0535816 18.5117104,9.25606846 C18.5117104,8.00254382 18.2671441,6.80420169 17.7783381,5.66104208" id="Fill-1"></path>
        </g>
    </g>
</svg>