<?xml version="1.0" encoding="UTF-8"?>
<svg width="27px" height="27px" viewBox="0 0 27 27" version="1.1" xmlns="http://www.w3.org/2000/svg" xmlns:xlink="http://www.w3.org/1999/xlink">
    <!-- Generator: Sketch 56.3 (81716) - https://sketch.com -->
    <title>Documents</title>
    <desc>Created with Sketch.</desc>
    <defs>
        <polygon id="path-1" points="0.0475090909 0.156682809 12.165 0.156682809 12.165 13.6198547 0.0475090909 13.6198547"></polygon>
        <polygon id="path-3" points="0 0.083625908 12.1175182 0.083625908 12.1175182 13.536474 0 13.536474"></polygon>
    </defs>
    <g id="Documents" stroke="none" stroke-width="1" fill="none" fill-rule="evenodd">
        <g id="Group-9" transform="translate(6.000000, 5.000000)">
            <path d="M12.7113545,12.5473729 C12.1650818,12.5473729 11.7202636,12.9916525 11.7202636,13.5372639 L11.7202636,15.7150787 L14.8918091,12.5473729 L12.7113545,12.5473729 Z" id="Fill-1" fill="#FFFFFF"></path>
            <g id="Group-5" transform="translate(2.727273, 2.095524)">
                <mask id="mask-2" fill="white">
                    <use xlink:href="#path-1"></use>
                </mask>
                <g id="Clip-4"></g>
                <path d="M9.78605455,3.42326877 L2.42623636,3.42326877 L2.42623636,2.43337772 L9.78578182,2.43337772 L9.78578182,3.42326877 L9.78605455,3.42326877 Z M9.78605455,5.79938862 L2.42623636,5.79938862 L2.42623636,4.80949758 L9.78578182,4.80949758 L9.78578182,5.79938862 L9.78605455,5.79938862 Z M2.42623636,8.17496368 L6.81223636,8.17496368 L6.81223636,7.18507264 L2.42623636,7.18507264 L2.42623636,8.17496368 Z M0.0475090909,0.156682809 L0.0475090909,11.6398547 C0.0475090909,12.7288983 0.9396,13.6199092 2.03023636,13.6199092 L8.00187273,13.6199092 L8.00187273,11.441822 C8.00187273,10.3527785 8.89396364,9.46203995 9.98432727,9.46203995 L12.1647818,9.46203995 L12.1650545,0.156682809 L0.0475090909,0.156682809 Z" id="Fill-3" fill="#FFFFFF" mask="url(#mask-2)"></path>
            </g>
            <g id="Group-8" transform="translate(0.000000, 0.188744)">
                <mask id="mask-4" fill="white">
                    <use xlink:href="#path-3"></use>
                </mask>
                <g id="Clip-7"></g>
                <path d="M-2.72727273e-05,0.0835986683 L-2.72727273e-05,11.5667706 C-2.72727273e-05,12.5888045 0.785972727,13.4365042 1.78415455,13.536474 L1.78415455,1.07348971 L12.1175182,1.07348971 L12.1175182,0.0835986683 L-2.72727273e-05,0.0835986683 Z" id="Fill-6" fill="#FFFFFF" mask="url(#mask-4)"></path>
            </g>
        </g>
    </g>
</svg>