<?xml version="1.0" encoding="UTF-8"?>
<svg width="27px" height="27px" viewBox="0 0 27 27" version="1.1" xmlns="http://www.w3.org/2000/svg" xmlns:xlink="http://www.w3.org/1999/xlink">
    <!-- Generator: Sketch 56.3 (81716) - https://sketch.com -->
    <title>Inventory</title>
    <desc>Created with Sketch.</desc>
    <defs>
        <polygon id="path-1" points="0 0.0793965517 14.6618793 0.0793965517 14.6618793 14.7413793 0 14.7413793"></polygon>
        <polygon id="path-3" points="0.197896552 0.0488017241 3.86332759 0.0488017241 3.86332759 2.84482759 0.197896552 2.84482759"></polygon>
        <polygon id="path-5" points="0.15812069 0.0488017241 3.82355172 0.0488017241 3.82355172 2.84482759 0.15812069 2.84482759"></polygon>
    </defs>
    <g id="Inventory" stroke="none" stroke-width="1" fill="none" fill-rule="evenodd">
        <g id="Group-12" transform="translate(6.000000, 6.000000)">
            <g id="Group-3" transform="translate(0.000000, 0.179198)">
                <mask id="mask-2" fill="white">
                    <use xlink:href="#path-1"></use>
                </mask>
                <g id="Clip-2"></g>
                <path d="M14.4640345,4.89465517 L7.59118966,0.160086207 C7.43472414,0.0525 7.22834483,0.0525 7.07136207,0.160086207 L0.198517241,4.89465517 C0.073862069,4.98025862 -0.000103448276,5.1212069 -0.000103448276,5.27224138 L-0.000103448276,14.1305172 C-0.000103448276,14.4677586 0.273775862,14.7413793 0.611017241,14.7413793 L1.57412069,14.7413793 L1.57412069,7.15189655 C1.57412069,6.81465517 1.84774138,6.54077586 2.18498276,6.54077586 L12.4767931,6.54077586 C12.8142931,6.54077586 13.0879138,6.81465517 13.0879138,7.15189655 L13.0879138,14.7413793 L14.0510172,14.7413793 C14.3882586,14.7413793 14.6618793,14.4677586 14.6618793,14.1305172 L14.6618793,5.27224138 C14.6618793,5.1212069 14.5879138,4.98025862 14.4640345,4.89465517" id="Fill-1" fill="#FFFFFF" mask="url(#mask-2)"></path>
            </g>
            <g id="Group-6" transform="translate(8.275862, 12.075750)">
                <mask id="mask-4" fill="white">
                    <use xlink:href="#path-3"></use>
                </mask>
                <g id="Clip-5"></g>
                <path d="M0.503327586,0.0488017241 C0.334706897,0.0488017241 0.197896552,0.185612069 0.197896552,0.354491379 L0.197896552,2.53931897 C0.197896552,2.70793966 0.334706897,2.84500862 0.503327586,2.84500862 L3.55789655,2.84500862 C3.72651724,2.84500862 3.86332759,2.70793966 3.86332759,2.53931897 L3.86332759,0.354491379 C3.86332759,0.185612069 3.72651724,0.0488017241 3.55789655,0.0488017241 L0.503327586,0.0488017241 Z" id="Fill-4" fill="#FFFFFF" mask="url(#mask-4)"></path>
            </g>
            <g id="Group-9" transform="translate(3.879310, 12.075750)">
                <mask id="mask-6" fill="white">
                    <use xlink:href="#path-5"></use>
                </mask>
                <g id="Clip-8"></g>
                <path d="M0.463551724,0.0488017241 C0.294931034,0.0488017241 0.15812069,0.185612069 0.15812069,0.354491379 L0.15812069,2.53931897 C0.15812069,2.70793966 0.294931034,2.84500862 0.463551724,2.84500862 L3.51812069,2.84500862 C3.68674138,2.84500862 3.82355172,2.70793966 3.82355172,2.53931897 L3.82355172,0.354491379 C3.82355172,0.185612069 3.68674138,0.0488017241 3.51812069,0.0488017241 L0.463551724,0.0488017241 Z" id="Fill-7" fill="#FFFFFF" mask="url(#mask-6)"></path>
            </g>
            <path d="M8.77918966,8.53316379 C8.61056897,8.53316379 8.47375862,8.66997414 8.47375862,8.83885345 L8.47375862,11.023681 C8.47375862,11.1923017 8.61056897,11.3293707 8.77918966,11.3293707 L11.8337586,11.3293707 C12.0023793,11.3293707 12.1391897,11.1923017 12.1391897,11.023681 L12.1391897,8.83885345 C12.1391897,8.66997414 12.0023793,8.53316379 11.8337586,8.53316379 L8.77918966,8.53316379 Z" id="Fill-10" fill="#FFFFFF"></path>
        </g>
    </g>
</svg>