<?xml version="1.0" encoding="UTF-8"?>
<svg width="27px" height="27px" viewBox="0 0 27 27" version="1.1" xmlns="http://www.w3.org/2000/svg" xmlns:xlink="http://www.w3.org/1999/xlink">
    <!-- Generator: Sketch 56.3 (81716) - https://sketch.com -->
    <title>Payroll</title>
    <desc>Created with Sketch.</desc>
    <defs>
        <polygon id="path-1" points="2.54655451e-05 0.165688157 17.8232579 0.165688157 17.8232579 5.61403509 2.54655451e-05 5.61403509"></polygon>
    </defs>
    <g id="Payroll" stroke="none" stroke-width="1" fill="none" fill-rule="evenodd">
        <g id="Group-10" transform="translate(5.000000, 6.000000)">
            <g id="Group-3" transform="translate(0.000000, 10.299761)">
                <mask id="mask-2" fill="white">
                    <use xlink:href="#path-1"></use>
                </mask>
                <g id="Clip-2"></g>
                <path d="M1.77673846,4.80418246 C1.49261538,4.80418246 1.26027692,4.57990175 1.26027692,4.2994807 C1.26027692,4.01905965 1.49261538,3.79477895 1.77673846,3.79477895 C2.06058462,3.79477895 2.2932,4.01905965 2.2932,4.2994807 C2.2932,4.57990175 2.06058462,4.80418246 1.77673846,4.80418246 M17.1623077,0.425796491 C16.8228,0.39997193 16.1183077,0.788463158 15.9228,0.885866667 C15.2329846,1.23730526 14.2812,1.7869193 13.6542462,2.22453333 C13.6099385,2.25428772 13.5509538,2.29527018 13.5066462,2.32137544 C13.2264,2.50495439 12.9276,2.62818246 12.5955692,2.6992 C10.7734154,3.09162105 8.11744615,3.13681404 8.11744615,3.13681404 L7.96264615,3.14411228 C7.84467692,3.15169123 7.74138462,3.06916491 7.72643077,2.95351579 C7.70815385,2.82635789 7.80036923,2.71042807 7.92941538,2.6992 L11.88,2.31800702 C12.3153231,2.26944561 12.6620308,1.85793684 12.6141231,1.39449825 C12.5659385,0.930498246 12.1455692,0.590287719 11.7102462,0.639129825 L8.19858462,0.594217544 C7.95904615,0.590287719 7.57523077,0.530498246 7.34649231,0.463129825 C5.08181538,-0.206063158 3.80547692,0.422147368 3.12673846,0.713796491 C2.97553846,0.459480702 2.68781538,0.295270175 2.36686154,0.317445614 L0.850984615,0.418498246 C0.3456,0.452182456 -0.0343384615,0.878287719 0.00249230769,1.3717614 L0.245907692,4.78172632 C0.279138462,5.2754807 0.718061538,5.64544561 1.21984615,5.61204211 L2.73572308,5.51098947 C3.05667692,5.48853333 3.31504615,5.29035789 3.42913846,5.01751579 L10.0836,5.30916491 C10.8249231,5.3874807 11.5186154,5.29793684 12.1713231,4.95014737 L12.3632308,4.84909474 L17.3907692,1.86523509 C17.6380615,1.71955088 17.8150154,1.46523509 17.8224923,1.18116491 C17.8371692,0.840954386 17.6416615,0.459480702 17.1623077,0.425796491" id="Fill-1" fill="#FFFFFF" mask="url(#mask-2)"></path>
            </g>
            <path d="M13.5804462,11.7876211 C14.0933077,11.4249544 15.1445077,10.845586 15.7382308,10.5424281 C15.9190615,10.4526035 16.1073692,10.3591298 16.3100769,10.2881123 C16.0519846,10.112393 15.7753385,10.1050947 15.4876154,10.2170947 C14.9232462,10.4453053 13.8828462,10.9536561 13.3517077,11.2453053 C13.3481077,11.2528842 13.3442308,11.2604632 13.3442308,11.2677614 C13.3813385,11.3800421 13.4106923,11.4959719 13.4217692,11.6155509 C13.4328462,11.7126737 13.4292462,11.8061474 13.4253692,11.8996211 C13.4735538,11.8625684 13.5250615,11.8249544 13.5804462,11.7876211" id="Fill-4" fill="#FFFFFF"></path>
            <path d="M14.9378954,9.87699649 C14.6795262,9.70857544 14.4067569,9.70127719 14.1262338,9.81327719 C13.7759262,9.95194386 12.9977723,10.2099088 12.6510646,10.3968561 C12.7983877,10.4903298 12.9313108,10.6062596 13.04568,10.7407158 C13.0678338,10.7255579 13.0899877,10.7070316 13.1157415,10.6918737 L13.3702338,10.5498386 C13.7390954,10.3443649 14.5322031,10.060014 14.9378954,9.87699649" id="Fill-6" fill="#FFFFFF"></path>
            <path d="M7.08654462,6.33338947 C7.12752923,6.18321404 7.16879077,6.0330386 7.21392923,5.88679298 C7.26765231,5.71584561 7.31279077,5.69507368 7.46925231,5.77451228 C7.73676,5.91626667 8.01672923,5.99121404 8.31303692,6.02882807 C8.50245231,6.05381053 8.69159077,6.0330386 8.86466769,5.9536 C9.19392923,5.80763509 9.24737538,5.41970526 8.96740615,5.19037193 C8.87297538,5.11093333 8.76580615,5.05254737 8.65476,5.00258246 C8.36676,4.87317895 8.06602154,4.77717895 7.79048308,4.6101614 C7.34989846,4.34321404 7.06577538,3.97184561 7.09872923,3.42952982 C7.13583692,2.81198596 7.48171385,2.42826667 8.03722154,2.22363509 C8.26789846,2.14026667 8.26789846,2.14026667 8.27177538,1.89830175 L8.27177538,1.65212632 C8.27592923,1.46854737 8.30888308,1.43514386 8.48583692,1.43093333 L8.65476,1.43093333 C9.03746769,1.43093333 9.03746769,1.43093333 9.04162154,1.81914386 C9.04162154,2.09423158 9.04162154,2.09423158 9.31328308,2.14026667 C9.51903692,2.17367018 9.72063692,2.23626667 9.91005231,2.31963509 C10.0172215,2.36567018 10.0540523,2.44089825 10.0252523,2.55345965 C9.97596,2.72019649 9.93082154,2.89114386 9.87709846,3.0581614 C9.82780615,3.21675789 9.77851385,3.23781053 9.62592923,3.16679298 C9.32546769,3.02054737 9.00866769,2.95823158 8.67940615,2.97479298 C8.59300615,2.97900351 8.50632923,2.99163509 8.42823692,3.02924912 C8.14023692,3.1541614 8.09482154,3.47528421 8.33768308,3.67570526 C8.46119077,3.77591579 8.60131385,3.84693333 8.74919077,3.90924912 C9.00451385,4.0178807 9.25983692,4.11781053 9.49854462,4.25142456 C10.2681138,4.68117895 10.4738677,5.66167018 9.93082154,6.32524912 C9.73309846,6.56693333 9.48192923,6.72974035 9.18562154,6.80889825 C9.05796,6.84651228 8.99620615,6.9133193 9.00451385,7.05114386 C9.00866769,7.18447719 9.00451385,7.31809123 9.00451385,7.45142456 C9.00451385,7.57240702 8.94276,7.63528421 8.82756,7.63921404 C8.68356,7.64342456 8.54343692,7.64342456 8.39943692,7.63921404 C8.27592923,7.63528421 8.21417538,7.56426667 8.21417538,7.44328421 C8.21417538,7.34728421 8.21417538,7.24707368 8.21029846,7.15107368 C8.20586769,6.93437193 8.20199077,6.92567018 7.99623692,6.89254737 C7.73260615,6.85072281 7.47756,6.78812632 7.23469846,6.67135439 C7.04943692,6.58377544 7.03309846,6.53381053 7.08654462,6.33338947 M8.65060615,9.07865263 C11.12436,9.07865263 13.1287292,7.04693333 13.1287292,4.53914386 C13.1287292,2.03191579 11.12436,0.000196491228 8.65060615,0.000196491228 C6.17685231,0.000196491228 4.17248308,2.03191579 4.17248308,4.53914386 C4.17248308,7.04693333 6.17685231,9.07865263 8.65060615,9.07865263" id="Fill-8" fill="#FFFFFF"></path>
        </g>
    </g>
</svg>