<?xml version="1.0" encoding="UTF-8"?>
<svg width="27px" height="27px" viewBox="0 0 27 27" version="1.1" xmlns="http://www.w3.org/2000/svg" xmlns:xlink="http://www.w3.org/1999/xlink">
    <!-- Generator: Sketch 56.3 (81716) - https://sketch.com -->
    <title>Repairs Maintenance</title>
    <desc>Created with Sketch.</desc>
    <defs>
        <polygon id="path-1" points="0 0.0795049094 7.41105263 0.0795049094 7.41105263 7.35687931 0 7.35687931"></polygon>
        <polygon id="path-3" points="0.0422894737 0.210672414 14.8278947 0.210672414 14.8278947 14.7413793 0.0422894737 14.7413793"></polygon>
    </defs>
    <g id="Repairs-Maintenance" stroke="none" stroke-width="1" fill="none" fill-rule="evenodd">
        <g id="Group-9" transform="translate(6.000000, 6.000000)">
            <g id="Group-3" transform="translate(0.000000, 0.179198)">
                <mask id="mask-2" fill="white">
                    <use xlink:href="#path-1"></use>
                </mask>
                <g id="Clip-2"></g>
                <path d="M3.57131579,6.25386207 C3.98552632,6.19903448 4.4,6.33894828 4.69368421,6.62756897 L5.43552632,7.35687931 L6.13736842,6.66998276 L5.12342105,5.67662069 C4.96578947,5.5217069 4.96578947,5.2692931 5.12342105,5.11463793 C5.28105263,4.95946552 5.53763158,4.95946552 5.69526316,5.11463793 L6.70947368,6.11084483 L7.41105263,5.42446552 L6.66605263,4.69205172 C6.37236842,4.40368966 6.23026316,3.99325862 6.28578947,3.58903448 C6.40947368,2.6655 6.10973684,1.69955172 5.38921053,0.988603448 C4.65342105,0.265241379 3.64552632,-0.0262241379 2.69026316,0.113431034 C2.53868421,0.134637931 2.47684211,0.320068966 2.585,0.426362069 L3.54052632,1.36515517 C3.995,1.8117931 3.995,2.53489655 3.54052632,2.97843103 L2.95289474,3.55567241 C2.49842105,4.00256897 1.76263158,4.00256897 1.31131579,3.55567241 L0.353157895,2.61687931 C0.244736842,2.51058621 0.0592105263,2.57136207 0.0344736842,2.72032759 C-0.107631579,3.65912069 0.188947368,4.64963793 0.925,5.37274138 C1.64842105,6.08058621 2.63157895,6.37541379 3.57131579,6.25386207" id="Fill-1" fill="#FFFFFF" mask="url(#mask-2)"></path>
            </g>
            <path d="M9.51344737,7.66957759 L8.81160526,8.35621552 L12.9792368,12.4519914 C13.1368684,12.6069052 13.1368684,12.8590603 12.9792368,13.0139741 C12.8216053,13.1691466 12.5650263,13.1691466 12.4073947,13.0139741 L8.23976316,8.9184569 L7.53792105,9.60483621 L11.8321316,13.8252672 C12.3763421,14.3600948 13.2573947,14.3567328 13.8016053,13.8221638 C14.3455526,13.2875948 14.3455526,12.4214741 13.8047632,11.8869052 L9.51344737,7.66957759 Z" id="Fill-4" fill="#FFFFFF"></path>
            <g id="Group-8" transform="translate(0.000000, 0.179198)">
                <mask id="mask-4" fill="white">
                    <use xlink:href="#path-3"></use>
                </mask>
                <g id="Clip-7"></g>
                <path d="M11.1242632,4.75593103 L12.9761053,4.75593103 L14.8279474,1.11894828 L13.9037368,0.210672414 L10.1997895,2.02748276 L10.1997895,3.84739655 L5.16663158,8.77877586 L4.26084211,7.89144828 L0.612684211,11.4767069 C-0.147842105,12.2241207 -0.147842105,13.433431 0.612684211,14.1808448 C1.37321053,14.9282586 2.60373684,14.9282586 3.36426316,14.1808448 L7.01242105,10.5955862 L6.08794737,9.68705172 L11.1242632,4.75593103 Z" id="Fill-6" fill="#FFFFFF" mask="url(#mask-4)"></path>
            </g>
        </g>
    </g>
</svg>