<?xml version="1.0" encoding="UTF-8"?>
<svg width="27px" height="27px" viewBox="0 0 27 27" version="1.1" xmlns="http://www.w3.org/2000/svg" xmlns:xlink="http://www.w3.org/1999/xlink">
    <!-- Generator: Sketch 56.3 (81716) - https://sketch.com -->
    <title>Trip Monitoring</title>
    <desc>Created with Sketch.</desc>
    <defs>
        <polygon id="path-1" points="0 -2.80701754e-05 14.8029789 -2.80701754e-05 14.8029789 15.9137965 0 15.9137965"></polygon>
    </defs>
    <g id="Trip-Monitoring" stroke="none" stroke-width="1" fill="none" fill-rule="evenodd">
        <g id="Group-3" transform="translate(6.000000, 5.000000)">
            <mask id="mask-2" fill="white">
                <use xlink:href="#path-1"></use>
            </mask>
            <g id="Clip-2"></g>
            <path d="M11.686528,9.84519298 L3.89540073,9.84519298 C3.46532073,9.84519298 3.11642376,9.48421053 3.11642376,9.03957895 C3.11642376,8.59494737 3.46532073,8.23424561 3.89540073,8.23424561 L11.686528,8.23424561 C12.116608,8.23424561 12.465505,8.59494737 12.465505,9.03957895 C12.465505,9.48421053 12.116608,9.84519298 11.686528,9.84519298 M11.686528,13.0670877 L3.89540073,13.0670877 C3.46532073,13.0670877 3.11642376,12.7061053 3.11642376,12.2614737 C3.11642376,11.8168421 3.46532073,11.4561404 3.89540073,11.4561404 L11.686528,11.4561404 C12.116608,11.4561404 12.465505,11.8168421 12.465505,12.2614737 C12.465505,12.7061053 12.116608,13.0670877 11.686528,13.0670877 M8.57007709,5.81796491 C8.57007709,6.26259649 8.22118012,6.62329825 7.79110012,6.62329825 L3.89540073,6.62329825 C3.46532073,6.62329825 3.11642376,6.26259649 3.11642376,5.81796491 C3.11642376,5.37333333 3.46532073,5.01235088 3.89540073,5.01235088 L7.79110012,5.01235088 C8.22118012,5.01235088 8.57007709,5.37333333 8.57007709,5.81796491 M12.6601813,1.81235088 L11.8812044,1.81235088 L11.8812044,0.805473684 C11.8812044,0.360842105 11.5323074,-0.000140350877 11.1022274,-0.000140350877 C10.6721474,-0.000140350877 10.3232504,0.360842105 10.3232504,0.805473684 L10.3232504,1.81235088 L8.18045285,1.81235088 L8.18045285,0.805473684 C8.18045285,0.360842105 7.83155588,-0.000140350877 7.40147588,-0.000140350877 C6.97139588,-0.000140350877 6.62249891,0.360842105 6.62249891,0.805473684 L6.62249891,1.81235088 L4.47997285,1.81235088 L4.47997285,0.805473684 C4.47997285,0.360842105 4.13080436,-0.000140350877 3.70072436,-0.000140350877 C3.27064436,-0.000140350877 2.92174739,0.360842105 2.92174739,0.805473684 L2.92174739,1.81235088 L2.14249891,1.81235088 C0.960593455,1.81235088 -2.71515152e-05,2.80547368 -2.71515152e-05,4.02736842 L-2.71515152e-05,13.6989474 C-2.71515152e-05,14.9208421 0.960593455,15.9139649 2.14249891,15.9139649 L12.6601813,15.9139649 C13.8420868,15.9139649 14.8029789,14.9208421 14.8029789,13.6989474 L14.8029789,4.02736842 C14.8029789,2.80547368 13.8420868,1.81235088 12.6601813,1.81235088" id="Fill-1" fill="#FFFFFF" mask="url(#mask-2)"></path>
        </g>
    </g>
</svg>