<?xml version="1.0" encoding="UTF-8"?>
<svg width="27px" height="27px" viewBox="0 0 27 27" version="1.1" xmlns="http://www.w3.org/2000/svg" xmlns:xlink="http://www.w3.org/1999/xlink">
    <!-- Generator: Sketch 56.3 (81716) - https://sketch.com -->
    <title>User Management</title>
    <desc>Created with Sketch.</desc>
    <defs>
        <polygon id="path-1" points="0 0.0794014828 14.7914716 0.0794014828 14.7914716 14.7412853 0 14.7412853"></polygon>
        <polygon id="path-3" points="1.1057919e-05 0.0084809024 14.7914975 0.0084809024 14.7914975 6.72413793 1.1057919e-05 6.72413793"></polygon>
    </defs>
    <g id="User-Management" stroke="none" stroke-width="1" fill="none" fill-rule="evenodd">
        <g id="Group-9" transform="translate(6.000000, 6.000000)">
            <g id="Group-3" transform="translate(0.000000, 0.179198)">
                <mask id="mask-2" fill="white">
                    <use xlink:href="#path-1"></use>
                </mask>
                <g id="Clip-2"></g>
                <path d="M10.7187414,4.0242931 C10.7058103,3.27532759 10.6473621,2.68256897 10.4567586,2.10972414 C10.1562414,1.20636207 9.59037931,0.552568966 8.6627069,0.2655 C7.93081034,0.0392068966 7.18494828,0.0273103448 6.43546552,0.186362069 C5.44494828,0.39687931 4.7652931,0.980068966 4.41201724,1.92067241 C4.05331034,2.87498276 3.98322414,3.86601724 4.17434483,4.8642931 C4.35201724,5.793 4.79296552,6.58412069 5.54089655,7.18024138 C6.20193103,7.70705172 6.95736207,7.93748276 7.80124138,7.818 C8.61201724,7.70317241 9.26141379,7.29248276 9.77710345,6.66843103 C10.4456379,5.8592069 10.7187414,4.91239655 10.7187414,4.0242931 M7.39856897,14.7379138 L7.64089655,14.7379138 C9.73210345,14.7379138 11.8233103,14.7322241 13.9142586,14.7412853 C14.5602931,14.7441207 14.9753793,14.1061034 14.7102931,13.5236897 C14.1565862,12.3068793 13.6217586,11.0815345 13.0802069,9.85903448 C12.9852931,9.64386207 12.8458966,9.47860345 12.6312414,9.36843103 C11.7904655,8.93627586 10.9533103,8.49765517 10.1158966,8.0592931 C10.0238276,8.01093103 9.9465,8.01351724 9.86218966,8.07610345 C9.62012069,8.25558621 9.36227586,8.41024138 9.08736207,8.53386207 C8.20184483,8.93136207 7.28762069,9.00015517 6.34908621,8.76222414 C5.83081034,8.63084483 5.364,8.38955172 4.93391379,8.07558621 C4.84934483,8.01403448 4.77227586,8.01118966 4.6802069,8.05955172 C3.8427931,8.49791379 3.00512069,8.93575862 2.16512069,9.3692069 C1.96339655,9.47317241 1.82063793,9.62394828 1.72960345,9.8292931 C1.17874138,11.0717069 0.627103448,12.3138621 0.0759827586,13.5560172 C0.009,13.7067931 -0.0160862069,13.8642931 0.0102931034,14.0285172 C0.0744310345,14.4286034 0.426155172,14.7420517 0.894,14.7410172 C3.06227586,14.7342931 5.2302931,14.7379138 7.39856897,14.7379138" id="Fill-1" fill="#FFFFFF" mask="url(#mask-2)"></path>
            </g>
            <g id="Group-6" transform="translate(0.000000, 8.196440)">
                <mask id="mask-4" fill="white">
                    <use xlink:href="#path-3"></use>
                </mask>
                <g id="Clip-5"></g>
                <path d="M7.39859483,6.72062069 C5.23031897,6.72062069 3.0620431,6.717 0.894025862,6.72372414 C0.426181034,6.72501724 0.0744568966,6.41156897 0.0103189655,6.01122414 C-0.0160603448,5.847 0.00902586207,5.68975862 0.0760086207,5.53898276 C0.62687069,4.29656897 1.17876724,3.05441379 1.72962931,1.81225862 C1.82066379,1.60691379 1.96316379,1.45613793 2.16514655,1.35191379 C3.00514655,0.918465517 3.84281897,0.48062069 4.68023276,0.0422586207 C4.77230172,-0.00610344828 4.84937069,-0.00325862069 4.93393966,0.0582931034 C5.36402586,0.372258621 5.83083621,0.613810345 6.34911207,0.745189655 C7.28764655,0.982862069 8.20187069,0.914068966 9.08738793,0.516568966 C9.36230172,0.392948276 9.62014655,0.238551724 9.86221552,0.0588103448 C9.94652586,-0.00377586207 10.0238534,-0.00636206897 10.1159224,0.042 C10.9533362,0.480362069 11.7904914,0.918982759 12.6312672,1.35113793 C12.8459224,1.46131034 12.985319,1.62682759 13.0802328,1.84174138 C13.6215259,3.06424138 14.1566121,4.28984483 14.710319,5.50665517 C14.9754052,6.08906897 14.560319,6.72682759 13.9142845,6.72424922 C11.8230776,6.71518966 9.73187069,6.72062069 7.64092241,6.72062069 L7.39859483,6.72062069 Z" id="Fill-4" fill="#FFFFFF" mask="url(#mask-4)"></path>
            </g>
            <path d="M9.77710345,6.84762931 C9.26141379,7.47168103 8.61201724,7.88237069 7.80124138,7.99719828 C6.95736207,8.11668103 6.20193103,7.88625 5.54089655,7.35943966 C4.79296552,6.76331897 4.35201724,5.97219828 4.17434483,5.04349138 C3.98322414,4.04521552 4.05331034,3.05418103 4.41201724,2.09987069 C4.7652931,1.15926724 5.44494828,0.576077586 6.43546552,0.365560345 C7.18494828,0.206508621 7.93081034,0.218405172 8.6627069,0.444698276 C9.59037931,0.731767241 10.1562414,1.38556034 10.4567586,2.28892241 C10.6473621,2.86176724 10.7058103,3.45452586 10.7187414,4.20349138 C10.7187414,5.09159483 10.4456379,6.03840517 9.77710345,6.84762931 Z" id="Fill-7" fill="#FFFFFF"></path>
        </g>
    </g>
</svg>